<svg width="165" height="249" viewBox="0 0 165 249" fill="none" xmlns="http://www.w3.org/2000/svg">
<circle cx="115.162" cy="129.021" r="42.8836" transform="rotate(32.2719 115.162 129.021)" fill="#EFA44B" fill-opacity="0.7"/>
<path d="M131.136 240.271C135.172 233.762 137.303 226.253 137.289 218.594C137.275 210.935 135.116 203.433 131.056 196.939C126.997 190.444 121.199 185.217 114.32 181.849C107.441 178.482 99.7569 177.108 92.1375 177.885C84.5182 178.661 77.2686 181.556 71.2107 186.242C65.1527 190.928 60.5285 197.218 57.8622 204.397C55.196 211.577 54.5943 219.36 56.1253 226.865C57.6564 234.369 61.2589 241.294 66.5247 246.856L72.2198 241.463C67.9615 236.966 65.0481 231.365 63.81 225.297C62.5719 219.228 63.0585 212.934 65.2146 207.128C67.3708 201.322 71.1103 196.236 76.0093 192.446C80.9084 188.657 86.7709 186.315 92.9326 185.687C99.0943 185.059 105.309 186.17 110.871 188.894C116.434 191.617 121.123 195.844 124.406 201.096C127.689 206.348 129.435 212.415 129.446 218.608C129.458 224.802 127.734 230.875 124.47 236.139L131.136 240.271Z" fill="#EF4BA4" fill-opacity="0.8"/>
<circle cx="97.8983" cy="232.345" r="36.2293" transform="rotate(-50.9557 97.8983 232.345)" fill="white" fill-opacity="0.8"/>
<path d="M213.494 92.715C211.174 82.9496 206.164 74.0295 199.032 66.9659C191.901 59.9023 182.934 54.9776 173.146 52.75C163.359 50.5224 153.144 51.0809 143.658 54.3624C134.172 57.6438 125.795 63.5168 119.476 71.3158C113.158 79.1148 109.15 88.5279 107.908 98.4882C106.666 108.448 108.238 118.558 112.448 127.67C116.657 136.782 123.335 144.533 131.724 150.043C140.113 155.554 149.879 158.605 159.913 158.85L160.164 148.574C152.049 148.376 144.152 145.909 137.367 141.452C130.583 136.996 125.183 130.728 121.779 123.359C118.375 115.99 117.103 107.815 118.108 99.7604C119.112 91.7056 122.353 84.0934 127.463 77.7864C132.573 71.4795 139.347 66.73 147.018 64.0764C154.689 61.4227 162.951 60.971 170.865 62.7725C178.78 64.5739 186.032 68.5565 191.799 74.2687C197.566 79.981 201.617 87.1945 203.494 95.0917L213.494 92.715Z" fill="#72B01D" fill-opacity="0.7"/>
</svg>
