<svg width="152" height="126" viewBox="0 0 152 126" fill="none" xmlns="http://www.w3.org/2000/svg">
<path d="M51.8207 -23.9465C43.8002 -19.5973 37.1583 -13.0883 32.648 -5.15724C28.1377 2.77381 25.9392 11.8097 26.3018 20.9264C26.6644 30.043 29.5736 38.8758 34.6996 46.4236C39.8256 53.9713 46.9634 59.9323 55.3041 63.6307C63.6447 67.3292 72.8546 68.6172 81.8898 67.3489C90.9251 66.0806 99.4244 62.3066 106.424 56.4548C113.424 50.6029 118.645 42.9071 121.495 34.2398C124.345 25.5724 124.71 16.28 122.548 7.4159L87.8617 15.8738C88.443 18.2578 88.3449 20.757 87.5785 23.088C86.812 25.4191 85.4079 27.4888 83.5253 29.0627C81.6426 30.6365 79.3568 31.6515 76.9268 31.9926C74.4968 32.3337 72.0198 31.9873 69.7766 30.9926C67.5334 29.9979 65.6137 28.3948 64.2351 26.3648C62.8565 24.3349 62.0741 21.9593 61.9765 19.5074C61.879 17.0555 62.4703 14.6254 63.6833 12.4923C64.8964 10.3593 66.6827 8.60871 68.8398 7.43901L51.8207 -23.9465Z" fill="#72B01D" fill-opacity="0.7"/>
<circle cx="120.744" cy="84.0491" r="32.7078" transform="rotate(-160.181 120.744 84.0491)" fill="white" fill-opacity="0.8"/>
</svg>
