<svg width="123" height="279" viewBox="0 0 123 279" fill="none" xmlns="http://www.w3.org/2000/svg">
<circle cx="59.641" cy="144.674" r="51.374" fill="#EFA44B" fill-opacity="0.7"/>
<path d="M146.983 247.145C146.908 237.97 144.263 229 139.35 221.251C134.437 213.502 127.451 207.285 119.185 203.303C110.919 199.322 101.702 197.736 92.5805 198.724C83.4587 199.713 74.7963 203.237 67.5751 208.897C60.3539 214.558 54.8627 222.128 51.7238 230.749C48.5849 239.371 47.9239 248.699 49.8157 257.677C51.7075 266.655 56.0765 274.924 62.4274 281.546C68.7783 288.167 76.8572 292.878 85.7484 295.143L88.0679 286.038C80.8777 284.206 74.3444 280.397 69.2085 275.042C64.0726 269.687 60.5395 263 59.0096 255.74C57.4798 248.479 58.0143 240.936 60.5527 233.963C63.0911 226.991 67.5318 220.87 73.3715 216.292C79.2112 211.715 86.2163 208.865 93.5929 208.065C100.97 207.266 108.423 208.549 115.108 211.769C121.792 214.988 127.442 220.016 131.415 226.283C135.388 232.549 137.527 239.803 137.588 247.223L146.983 247.145Z" fill="#EF4BA4" fill-opacity="0.8"/>
<circle cx="108.246" cy="260.377" r="43.4021" transform="rotate(-83.2276 108.246 260.377)" fill="white" fill-opacity="0.8"/>
<path d="M136.021 45.0009C127.424 36.5938 116.644 30.7631 104.902 28.1697C93.1602 25.5763 80.9268 26.324 69.5883 30.3279C58.2498 34.3318 48.2596 41.4319 40.7501 50.8233C33.2406 60.2148 28.512 71.5221 27.1003 83.4637C25.6886 95.4052 27.6503 107.503 32.763 118.387C37.8757 129.271 45.9349 138.504 56.0273 145.042C66.1196 151.579 77.8415 155.159 89.8642 155.375C101.887 155.591 113.73 152.434 124.05 146.264L117.731 135.695C109.385 140.685 99.808 143.237 90.0854 143.063C80.3628 142.888 70.8835 139.993 62.7219 134.707C54.5603 129.42 48.0429 121.953 43.9083 113.151C39.7738 104.35 38.1874 94.5663 39.329 84.9093C40.4706 75.2523 44.2946 66.1083 50.3674 58.5135C56.4403 50.9187 64.5192 45.177 73.6885 41.9391C82.8578 38.7012 92.7508 38.0966 102.246 40.1938C111.742 42.291 120.46 47.0062 127.412 53.8049L136.021 45.0009Z" fill="#72B01D" fill-opacity="0.7"/>
</svg>
