<svg width="178" height="201" viewBox="0 0 178 201" fill="none" xmlns="http://www.w3.org/2000/svg">
<path d="M206.862 171.048C216.222 160.547 222.454 147.633 224.85 133.771C227.246 119.909 225.711 105.653 220.419 92.619C215.128 79.5847 206.29 68.2935 194.909 60.025C183.528 51.7565 170.059 46.8415 156.027 45.8371C141.995 44.8326 127.963 47.7789 115.52 54.3419C103.077 60.9049 92.7218 70.8223 85.6273 82.9699C78.5328 95.1175 74.9831 109.01 75.3803 123.071C75.7776 137.133 80.1061 150.803 87.8751 162.531L133.767 132.129C131.678 128.975 130.514 125.299 130.407 121.517C130.3 117.735 131.255 113.999 133.163 110.732C135.071 107.465 137.856 104.797 141.202 103.032C144.549 101.267 148.323 100.475 152.096 100.745C155.87 101.015 159.493 102.337 162.554 104.561C165.615 106.784 167.991 109.821 169.415 113.327C170.838 116.832 171.251 120.666 170.606 124.395C169.962 128.123 168.286 131.596 165.768 134.42L206.862 171.048Z" fill="#72B01D" fill-opacity="0.7"/>
<circle cx="50.4303" cy="50.4303" r="50.4303" fill="white" fill-opacity="0.8"/>
</svg>
