<svg width="188" height="326" viewBox="0 0 188 326" fill="none" xmlns="http://www.w3.org/2000/svg">
<circle cx="101" cy="239" r="87" fill="#EFA44B" fill-opacity="0.7"/>
<path d="M-57.2879 256.495C-54.7262 267.156 -49.229 276.888 -41.4194 284.585C-33.6098 292.282 -23.8002 297.638 -13.1023 300.045C-2.40444 302.452 8.75383 301.815 19.1078 298.204C29.4618 294.594 38.5973 288.156 45.4791 279.619C52.3608 271.082 56.7135 260.787 58.0438 249.903C59.3742 239.019 57.6289 227.979 53.0058 218.036C48.3828 208.093 41.0668 199.644 31.8872 193.646C22.7075 187.648 12.0313 184.342 1.0686 184.102L0.822585 195.328C9.688 195.522 18.3217 198.196 25.7452 203.046C33.1686 207.897 39.0849 214.73 42.8236 222.77C46.5622 230.811 47.9735 239.739 46.8977 248.541C45.8219 257.343 42.302 265.668 36.7368 272.571C31.1716 279.475 23.7838 284.682 15.4106 287.601C7.03753 290.521 -1.98602 291.037 -10.6373 289.09C-19.2885 287.144 -27.2214 282.812 -33.5369 276.588C-39.8524 270.363 -44.2979 262.493 -46.3695 253.871L-57.2879 256.495Z" fill="#72B01D" fill-opacity="0.82"/>
<path d="M72.6644 185.789C86.8574 179.466 98.9954 169.294 107.702 156.425C116.41 143.556 121.338 128.505 121.928 112.978C122.519 97.4518 118.748 82.0703 111.043 68.5772C103.339 55.0841 92.0083 44.0191 78.3365 36.6363C64.6647 29.2534 49.1982 25.8481 33.6899 26.8061C18.1816 27.7642 3.25185 33.0473 -9.40728 42.0568C-22.0664 51.0663 -31.9486 63.4418 -37.9338 77.7806C-43.919 92.1194 -45.7679 107.848 -43.2709 123.184L-27.5662 120.627C-29.5855 108.225 -28.0904 95.5053 -23.2502 83.9097C-18.41 72.3141 -10.4184 62.3062 -0.181148 55.0204C10.0561 47.7345 22.1297 43.4621 34.671 42.6873C47.2123 41.9126 59.7199 44.6664 70.7761 50.6368C81.8323 56.6072 90.995 65.5554 97.2256 76.4671C103.456 87.3788 106.506 99.8176 106.028 112.374C105.551 124.93 101.565 137.101 94.524 147.508C87.4827 157.915 77.6669 166.142 66.1892 171.255L72.6644 185.789Z" fill="#EF4BA4" fill-opacity="0.8"/>
</svg>
